<svg width="172" height="40" viewBox="0 0 172 40" fill="none" xmlns="http://www.w3.org/2000/svg">
<circle cx="20" cy="20" r="20" fill="black"/>
<path d="M32 9.01221C32 9.01221 29.8904 10.459 28.7173 10.8691C28.0876 10.0287 27.2508 9.43298 26.32 9.16261C25.3893 8.89225 24.4095 8.96025 23.5131 9.35744C22.6167 9.75462 21.847 10.4618 21.3081 11.3834C20.7692 12.3049 20.4871 13.3964 20.5 14.5101V15.7238C18.6627 15.7791 16.8422 15.3061 15.2006 14.3468C13.559 13.3876 12.1472 11.9719 11.0909 10.2259C11.0909 10.2259 6.90909 21.149 16.3182 26.0037C14.1651 27.7002 11.6002 28.551 9 28.431C18.4091 34.4994 29.9091 28.431 29.9091 14.4737C29.9081 14.1357 29.8801 13.7984 29.8255 13.4664C30.8924 12.2448 32 9.01221 32 9.01221Z" fill="#48773E"/>
<path d="M51.4773 29H46.1009V14.4545H51.4702C52.9522 14.4545 54.2282 14.7457 55.2983 15.3281C56.3731 15.9058 57.2017 16.7391 57.7841 17.8281C58.3665 18.9124 58.6577 20.2098 58.6577 21.7202C58.6577 23.2353 58.3665 24.5374 57.7841 25.6264C57.2064 26.7154 56.3802 27.5511 55.3054 28.1335C54.2306 28.7112 52.9545 29 51.4773 29ZM49.6165 26.0028H51.3423C52.1567 26.0028 52.8456 25.8655 53.4091 25.5909C53.9773 25.3116 54.4058 24.8594 54.6946 24.2344C54.9882 23.6046 55.1349 22.7666 55.1349 21.7202C55.1349 20.6738 54.9882 19.8404 54.6946 19.2202C54.401 18.5952 53.9678 18.1454 53.3949 17.8707C52.8267 17.5914 52.1259 17.4517 51.2926 17.4517H49.6165V26.0028ZM63.7855 29.1847C63.0895 29.1847 62.4716 29.0687 61.9318 28.8366C61.3968 28.5999 60.973 28.2448 60.6605 27.7713C60.3527 27.2931 60.1989 26.6941 60.1989 25.9744C60.1989 25.3684 60.3054 24.857 60.5185 24.4403C60.7315 24.0237 61.0251 23.6851 61.3991 23.4247C61.7732 23.1643 62.2041 22.9678 62.6918 22.8352C63.1795 22.6979 63.7003 22.6056 64.2543 22.5582C64.8745 22.5014 65.3741 22.4422 65.7528 22.3807C66.1316 22.3144 66.4063 22.2221 66.5767 22.1037C66.7519 21.9806 66.8395 21.8078 66.8395 21.5852V21.5497C66.8395 21.1851 66.714 20.9034 66.4631 20.7045C66.2121 20.5057 65.8736 20.4062 65.4474 20.4062C64.9882 20.4062 64.6188 20.5057 64.3395 20.7045C64.0601 20.9034 63.8826 21.178 63.8068 21.5284L60.6037 21.4148C60.6984 20.7519 60.9422 20.16 61.3352 19.6392C61.733 19.1136 62.2775 18.7017 62.9688 18.4034C63.6648 18.1004 64.5005 17.9489 65.4759 17.9489C66.1719 17.9489 66.8134 18.0317 67.4006 18.1974C67.9877 18.3584 68.4991 18.5952 68.9347 18.9077C69.3703 19.2154 69.7064 19.5942 69.9432 20.044C70.1847 20.4938 70.3054 21.0076 70.3054 21.5852V29H67.0384V27.4801H66.9531C66.759 27.8494 66.5104 28.1619 66.2074 28.4176C65.9091 28.6733 65.5563 28.8651 65.1491 28.9929C64.7467 29.1207 64.2921 29.1847 63.7855 29.1847ZM64.858 26.9119C65.232 26.9119 65.5682 26.8362 65.8665 26.6847C66.1695 26.5331 66.411 26.3248 66.5909 26.0597C66.7708 25.7898 66.8608 25.4773 66.8608 25.1222V24.0852C66.7614 24.1373 66.6406 24.1847 66.4986 24.2273C66.3613 24.2699 66.2098 24.3101 66.044 24.348C65.8783 24.3859 65.7079 24.419 65.5327 24.4474C65.3575 24.4759 65.1894 24.5019 65.0284 24.5256C64.7017 24.5777 64.4223 24.6581 64.1903 24.767C63.9631 24.8759 63.7879 25.018 63.6648 25.1932C63.5464 25.3636 63.4872 25.5672 63.4872 25.804C63.4872 26.1638 63.6151 26.4384 63.8707 26.6278C64.1312 26.8172 64.4602 26.9119 64.858 26.9119ZM81.9531 21.4219L78.7642 21.5071C78.7311 21.2798 78.6411 21.0786 78.4943 20.9034C78.3475 20.7235 78.1558 20.5838 77.919 20.4844C77.687 20.3802 77.4171 20.3281 77.1094 20.3281C76.7069 20.3281 76.3636 20.4086 76.0795 20.5696C75.8002 20.7306 75.6629 20.9484 75.6676 21.223C75.6629 21.4361 75.7481 21.6207 75.9233 21.777C76.1032 21.9332 76.4228 22.0587 76.8821 22.1534L78.9844 22.5511C80.0734 22.7595 80.883 23.1051 81.4134 23.5881C81.9484 24.071 82.2183 24.7102 82.223 25.5057C82.2183 26.2538 81.9957 26.9048 81.5554 27.4588C81.1198 28.0128 80.5232 28.4437 79.7656 28.7514C79.008 29.0545 78.1416 29.206 77.1662 29.206C75.6084 29.206 74.3797 28.8864 73.4801 28.2472C72.5852 27.6032 72.0739 26.7415 71.946 25.6619L75.3764 25.5767C75.4522 25.9744 75.6487 26.2775 75.9659 26.4858C76.2831 26.6941 76.688 26.7983 77.1804 26.7983C77.6255 26.7983 77.9877 26.7154 78.267 26.5497C78.5464 26.384 78.6884 26.1638 78.6932 25.8892C78.6884 25.643 78.5795 25.4465 78.3665 25.2997C78.1534 25.1482 77.8196 25.0298 77.3651 24.9446L75.4616 24.5824C74.3679 24.3835 73.5535 24.0166 73.0185 23.4815C72.4834 22.9418 72.2183 22.2552 72.223 21.4219C72.2183 20.6927 72.4124 20.0701 72.8054 19.554C73.1984 19.0331 73.7571 18.6354 74.4815 18.3608C75.206 18.0862 76.0606 17.9489 77.0455 17.9489C78.5227 17.9489 79.6875 18.259 80.5398 18.8793C81.392 19.4948 81.8632 20.3423 81.9531 21.4219ZM87.4059 22.7784V29H83.9329V14.4545H87.2923V20.0938H87.413C87.6592 19.4214 88.0617 18.8958 88.6204 18.517C89.1838 18.1383 89.8728 17.9489 90.6871 17.9489C91.4542 17.9489 92.1218 18.1193 92.69 18.4602C93.2582 18.7964 93.6985 19.2723 94.011 19.8878C94.3282 20.5033 94.4845 21.223 94.4798 22.0469V29H91.0067V22.7287C91.0115 22.1226 90.86 21.6491 90.5522 21.3082C90.2444 20.9673 89.8112 20.7969 89.2525 20.7969C88.8879 20.7969 88.5659 20.8774 88.2866 21.0384C88.012 21.1946 87.7965 21.4195 87.6403 21.7131C87.4888 22.0066 87.4106 22.3617 87.4059 22.7784ZM96.6477 29V14.4545H100.121V19.9588H100.192C100.334 19.6274 100.535 19.3078 100.795 19C101.061 18.6922 101.397 18.4413 101.804 18.2472C102.216 18.0483 102.708 17.9489 103.281 17.9489C104.039 17.9489 104.747 18.1477 105.405 18.5455C106.068 18.9432 106.603 19.5563 107.01 20.3849C107.417 21.2135 107.621 22.2694 107.621 23.5526C107.621 24.7884 107.424 25.8229 107.031 26.6562C106.643 27.4896 106.117 28.1146 105.455 28.5312C104.796 28.9479 104.065 29.1562 103.26 29.1562C102.711 29.1562 102.235 29.0663 101.832 28.8864C101.43 28.7064 101.091 28.4697 100.817 28.1761C100.547 27.8826 100.339 27.5677 100.192 27.2315H100.085V29H96.6477ZM100.05 23.5455C100.05 24.1326 100.128 24.6439 100.284 25.0795C100.445 25.5152 100.675 25.8537 100.973 26.0952C101.276 26.3319 101.638 26.4503 102.06 26.4503C102.486 26.4503 102.848 26.3319 103.146 26.0952C103.445 25.8537 103.67 25.5152 103.821 25.0795C103.977 24.6439 104.055 24.1326 104.055 23.5455C104.055 22.9583 103.977 22.4493 103.821 22.0185C103.67 21.5876 103.445 21.2538 103.146 21.017C102.853 20.7803 102.491 20.6619 102.06 20.6619C101.634 20.6619 101.271 20.7779 100.973 21.0099C100.675 21.242 100.445 21.5734 100.284 22.0043C100.128 22.4351 100.05 22.9489 100.05 23.5455ZM114.533 29.206C113.387 29.206 112.402 28.9716 111.578 28.5028C110.759 28.0294 110.127 27.3712 109.682 26.5284C109.242 25.6809 109.022 24.6984 109.022 23.581C109.022 22.4588 109.242 21.4763 109.682 20.6335C110.127 19.786 110.759 19.1278 111.578 18.6591C112.402 18.1856 113.387 17.9489 114.533 17.9489C115.679 17.9489 116.661 18.1856 117.48 18.6591C118.304 19.1278 118.936 19.786 119.377 20.6335C119.822 21.4763 120.044 22.4588 120.044 23.581C120.044 24.6984 119.822 25.6809 119.377 26.5284C118.936 27.3712 118.304 28.0294 117.48 28.5028C116.661 28.9716 115.679 29.206 114.533 29.206ZM114.554 26.5852C114.971 26.5852 115.324 26.4574 115.613 26.2017C115.901 25.946 116.122 25.5909 116.273 25.1364C116.429 24.6818 116.507 24.1562 116.507 23.5597C116.507 22.9536 116.429 22.4233 116.273 21.9688C116.122 21.5142 115.901 21.1591 115.613 20.9034C115.324 20.6477 114.971 20.5199 114.554 20.5199C114.123 20.5199 113.759 20.6477 113.461 20.9034C113.167 21.1591 112.942 21.5142 112.786 21.9688C112.634 22.4233 112.559 22.9536 112.559 23.5597C112.559 24.1562 112.634 24.6818 112.786 25.1364C112.942 25.5909 113.167 25.946 113.461 26.2017C113.759 26.4574 114.123 26.5852 114.554 26.5852ZM124.899 29.1847C124.203 29.1847 123.585 29.0687 123.045 28.8366C122.51 28.5999 122.086 28.2448 121.774 27.7713C121.466 27.2931 121.312 26.6941 121.312 25.9744C121.312 25.3684 121.419 24.857 121.632 24.4403C121.845 24.0237 122.138 23.6851 122.512 23.4247C122.886 23.1643 123.317 22.9678 123.805 22.8352C124.293 22.6979 124.814 22.6056 125.368 22.5582C125.988 22.5014 126.487 22.4422 126.866 22.3807C127.245 22.3144 127.52 22.2221 127.69 22.1037C127.865 21.9806 127.953 21.8078 127.953 21.5852V21.5497C127.953 21.1851 127.827 20.9034 127.576 20.7045C127.325 20.5057 126.987 20.4062 126.561 20.4062C126.101 20.4062 125.732 20.5057 125.453 20.7045C125.173 20.9034 124.996 21.178 124.92 21.5284L121.717 21.4148C121.812 20.7519 122.056 20.16 122.449 19.6392C122.846 19.1136 123.391 18.7017 124.082 18.4034C124.778 18.1004 125.614 17.9489 126.589 17.9489C127.285 17.9489 127.927 18.0317 128.514 18.1974C129.101 18.3584 129.612 18.5952 130.048 18.9077C130.484 19.2154 130.82 19.5942 131.056 20.044C131.298 20.4938 131.419 21.0076 131.419 21.5852V29H128.152V27.4801H128.066C127.872 27.8494 127.624 28.1619 127.321 28.4176C127.022 28.6733 126.67 28.8651 126.262 28.9929C125.86 29.1207 125.405 29.1847 124.899 29.1847ZM125.971 26.9119C126.345 26.9119 126.681 26.8362 126.98 26.6847C127.283 26.5331 127.524 26.3248 127.704 26.0597C127.884 25.7898 127.974 25.4773 127.974 25.1222V24.0852C127.875 24.1373 127.754 24.1847 127.612 24.2273C127.475 24.2699 127.323 24.3101 127.157 24.348C126.992 24.3859 126.821 24.419 126.646 24.4474C126.471 24.4759 126.303 24.5019 126.142 24.5256C125.815 24.5777 125.536 24.6581 125.304 24.767C125.076 24.8759 124.901 25.018 124.778 25.1932C124.66 25.3636 124.6 25.5672 124.6 25.804C124.6 26.1638 124.728 26.4384 124.984 26.6278C125.244 26.8172 125.574 26.9119 125.971 26.9119ZM133.542 29V18.0909H136.916V20.0795H137.029C137.228 19.3598 137.553 18.8248 138.002 18.4744C138.452 18.1193 138.975 17.9418 139.572 17.9418C139.733 17.9418 139.899 17.9536 140.069 17.9773C140.24 17.9962 140.398 18.027 140.545 18.0696V21.0881C140.379 21.0312 140.162 20.9863 139.892 20.9531C139.627 20.92 139.39 20.9034 139.181 20.9034C138.77 20.9034 138.398 20.9957 138.066 21.1804C137.74 21.3603 137.482 21.6136 137.292 21.9403C137.108 22.2623 137.015 22.6411 137.015 23.0767V29H133.542ZM145.378 29.1562C144.573 29.1562 143.842 28.9479 143.184 28.5312C142.525 28.1146 142 27.4896 141.607 26.6562C141.214 25.8229 141.017 24.7884 141.017 23.5526C141.017 22.2694 141.221 21.2135 141.628 20.3849C142.035 19.5563 142.568 18.9432 143.226 18.5455C143.889 18.1477 144.602 17.9489 145.364 17.9489C145.937 17.9489 146.427 18.0483 146.834 18.2472C147.241 18.4413 147.578 18.6922 147.843 19C148.108 19.3078 148.309 19.6274 148.446 19.9588H148.517V14.4545H151.99V29H148.553V27.2315H148.446C148.3 27.5677 148.091 27.8826 147.821 28.1761C147.551 28.4697 147.213 28.7064 146.806 28.8864C146.403 29.0663 145.927 29.1562 145.378 29.1562ZM146.586 26.4503C147.007 26.4503 147.367 26.3319 147.665 26.0952C147.963 25.8537 148.193 25.5152 148.354 25.0795C148.515 24.6439 148.596 24.1326 148.596 23.5455C148.596 22.9489 148.515 22.4351 148.354 22.0043C148.198 21.5734 147.968 21.242 147.665 21.0099C147.367 20.7779 147.007 20.6619 146.586 20.6619C146.155 20.6619 145.79 20.7803 145.492 21.017C145.194 21.2538 144.966 21.5876 144.81 22.0185C144.658 22.4493 144.583 22.9583 144.583 23.5455C144.583 24.1326 144.661 24.6439 144.817 25.0795C144.973 25.5152 145.198 25.8537 145.492 26.0952C145.79 26.3319 146.155 26.4503 146.586 26.4503Z" fill="black"/>
</svg>
